<svg xmlns="http://www.w3.org/2000/svg" viewBox="0 0 96 96" role="img" aria-label="Discord">
  <defs>
    <linearGradient id="bg" x1="14" y1="10" x2="84" y2="86" gradientUnits="userSpaceOnUse">
      <stop stop-color="#818CF8"/>
      <stop offset="1" stop-color="#5865F2"/>
    </linearGradient>
    <filter id="s" x="-20%" y="-20%" width="140%" height="140%">
      <feDropShadow dx="0" dy="10" stdDeviation="8" flood-color="#4F46E5" flood-opacity=".25"/>
    </filter>
  </defs>
  <rect x="10" y="10" width="76" height="76" rx="24" fill="url(#bg)" filter="url(#s)"/>
  <path d="M64.9 31.3A43.3 43.3 0 0 0 54.2 28l-1.4 3c-3.2-.5-6.3-.5-9.4 0l-1.5-3a43 43 0 0 0-10.7 3.3C24.5 41.2 22.6 50.9 23.5 60.4a43 43 0 0 0 13.1 6.7l2.7-4.4c-1.5-.6-2.9-1.3-4.2-2.1l1-1.1c8 3.8 16.6 3.8 24.5 0l1.1 1.1c-1.3.8-2.7 1.5-4.2 2.1l2.7 4.4a43 43 0 0 0 13.1-6.7c1-11-1.7-20.6-8.4-29.1ZM40.2 54.7c-2.6 0-4.7-2.4-4.7-5.3 0-2.9 2.1-5.3 4.7-5.3s4.8 2.4 4.7 5.3c0 2.9-2.1 5.3-4.7 5.3Zm15.6 0c-2.6 0-4.7-2.4-4.7-5.3 0-2.9 2.1-5.3 4.7-5.3s4.8 2.4 4.7 5.3c0 2.9-2.1 5.3-4.7 5.3Z" fill="#fff"/>
</svg>
