<svg xmlns="http://www.w3.org/2000/svg" viewBox="0 0 96 96" role="img" aria-label="TikTok">
  <defs>
    <linearGradient id="bg" x1="14" y1="10" x2="82" y2="86" gradientUnits="userSpaceOnUse">
      <stop stop-color="#111827"/>
      <stop offset="1" stop-color="#0F172A"/>
    </linearGradient>
    <linearGradient id="a" x1="25" y1="22" x2="73" y2="75" gradientUnits="userSpaceOnUse">
      <stop stop-color="#67E8F9"/>
      <stop offset="1" stop-color="#F472B6"/>
    </linearGradient>
  </defs>
  <rect x="10" y="10" width="76" height="76" rx="24" fill="url(#bg)"/>
  <path d="M58.7 22.5c1.7 9.2 7.2 15.2 15.8 16.2v12.5c-5.7-.1-10.9-1.8-15.5-5.1v19.4c0 13.6-8.6 22.5-21.4 22.5-11.6 0-20.1-7.6-20.1-18.2 0-11.1 9-18.8 21.2-18.8 1.4 0 2.7.1 4 .4V37.9h13.1v27.5c0 4.6-3.3 7.8-8.1 7.8-4.1 0-7.1-2.5-7.1-6.2 0-3.9 3.2-6.5 7.7-6.5 1.7 0 3.3.4 4.5 1.2V22.5h5.9Z" fill="url(#a)" opacity=".95"/>
  <path d="M54.1 22.5c1.7 9.2 7.2 15.2 15.8 16.2v10.2c-6.3-.8-11.4-3.1-15.4-6.8v21.4c0 13.6-8.6 22.5-21.4 22.5-4.2 0-8-.9-11.1-2.6 3.6 3 8.5 4.6 14.1 4.6 12.8 0 21.4-8.9 21.4-22.5V46.1c4.6 3.3 9.8 5 15.5 5.1V38.7c-8.6-1-14.1-7-15.8-16.2h-3.1Z" fill="#fff" opacity=".9"/>
</svg>
