<svg xmlns="http://www.w3.org/2000/svg" width="220" height="220" viewBox="0 0 220 220" role="img" aria-label="Allay NovaMC">
  <defs>
    <filter id="glow" x="-50%" y="-50%" width="200%" height="200%"><feGaussianBlur stdDeviation="7" result="blur"/><feMerge><feMergeNode in="blur"/><feMergeNode in="SourceGraphic"/></feMerge></filter>
    <linearGradient id="body" x1="0" y1="0" x2="1" y2="1"><stop stop-color="#a8f0ff"/><stop offset="1" stop-color="#4fb7df"/></linearGradient>
  </defs>
  <g filter="url(#glow)">
    <ellipse cx="63" cy="105" rx="44" ry="25" fill="#b8e4f5" opacity=".7"/>
    <ellipse cx="157" cy="105" rx="44" ry="25" fill="#b8e4f5" opacity=".7"/>
    <rect x="78" y="82" width="64" height="70" rx="16" fill="url(#body)"/>
    <rect x="81" y="45" width="58" height="52" rx="17" fill="#8ce3ff"/>
    <circle cx="96" cy="67" r="7" fill="#fff"/><circle cx="124" cy="67" r="7" fill="#fff"/>
    <circle cx="98" cy="68" r="3.5" fill="#123a5f"/><circle cx="126" cy="68" r="3.5" fill="#123a5f"/>
    <path d="M98 82 Q110 90 122 82" stroke="#123a5f" stroke-width="3" fill="none" stroke-linecap="round"/>
    <rect x="55" y="102" width="25" height="14" rx="7" fill="#6ab4d4" transform="rotate(-18 67 109)"/>
    <rect x="140" y="102" width="25" height="14" rx="7" fill="#6ab4d4" transform="rotate(18 152 109)"/>
    <rect x="89" y="149" width="17" height="29" rx="8" fill="#59aeca"/>
    <rect x="114" y="149" width="17" height="29" rx="8" fill="#59aeca"/>
    <text x="39" y="63" font-size="18" fill="#a8f0ff">✦</text><text x="169" y="87" font-size="14" fill="#a8f0ff">✦</text><text x="37" y="151" font-size="12" fill="#a8f0ff">✦</text>
  </g>
</svg>