<svg xmlns="http://www.w3.org/2000/svg" width="1280" height="720" viewBox="0 0 1280 720">
  <defs>
    <linearGradient id="sky" x1="0" y1="0" x2="1" y2="1"><stop offset="0" stop-color="#60a5fa"/><stop offset="1" stop-color="#e0f2fe"/></linearGradient>
    <linearGradient id="ground" x1="0" y1="0" x2="0" y2="1"><stop offset="0" stop-color="#8be46f"/><stop offset="1" stop-color="#2f9b5c"/></linearGradient>
    <filter id="shadow" x="-20%" y="-20%" width="140%" height="140%"><feDropShadow dx="0" dy="18" stdDeviation="16" flood-color="#0b4a6e" flood-opacity=".22"/></filter>
    <filter id="soft" x="-20%" y="-20%" width="140%" height="140%"><feGaussianBlur stdDeviation="8"/></filter>
  </defs>
  <rect width="1280" height="720" fill="url(#sky)"/>
  <g opacity=".9">
    <ellipse cx="185" cy="110" rx="96" ry="30" fill="#fff" opacity=".92"/>
    <circle cx="145" cy="104" r="42" fill="#fff" opacity=".92"/>
    <circle cx="210" cy="92" r="55" fill="#fff" opacity=".92"/>
    <ellipse cx="1050" cy="145" rx="120" ry="36" fill="#fff" opacity=".82"/>
    <circle cx="1000" cy="133" r="48" fill="#fff" opacity=".82"/>
    <circle cx="1085" cy="120" r="62" fill="#fff" opacity=".82"/>
  </g>
  <circle cx="1120" cy="90" r="48" fill="#ffe994" opacity=".85"/>
  <rect y="480" width="1280" height="240" fill="url(#ground)"/>
  <path d="M0 505 C160 465 260 520 408 490 C590 452 755 514 925 480 C1075 450 1175 500 1280 470 L1280 720 L0 720Z" fill="#57c878" opacity=".9"/>
  
  <g filter="url(#shadow)">
    <rect x="355" y="330" width="150" height="150" fill="#996633" stroke="#6b4422" stroke-width="5"/>
    <rect x="510" y="290" width="150" height="190" fill="#c48645" stroke="#6b4422" stroke-width="5"/>
    <rect x="665" y="330" width="150" height="150" fill="#996633" stroke="#6b4422" stroke-width="5"/>
    <polygon points="330,332 430,245 530,332" fill="#e75f5f" stroke="#9b3333" stroke-width="6"/>
    <polygon points="485,290 585,205 685,290" fill="#e75f5f" stroke="#9b3333" stroke-width="6"/>
    <polygon points="640,332 740,245 840,332" fill="#e75f5f" stroke="#9b3333" stroke-width="6"/>
    <rect x="568" y="396" width="58" height="84" fill="#58341b"/>
    <rect x="393" y="375" width="44" height="44" fill="#aee8ff"/>
    <rect x="710" y="375" width="44" height="44" fill="#aee8ff"/>
  </g>
  <g filter="url(#shadow)">
    <rect x="64" y="48" rx="34" width="420" height="126" fill="rgba(255,255,255,.78)" stroke="rgba(255,255,255,.95)"/>
    <text x="98" y="105" font-family="Arial, sans-serif" font-weight="900" font-size="42" fill="#0f3f66">Thị Trấn Cộng Đồng</text>
    <text x="100" y="145" font-family="Arial, sans-serif" font-weight="700" font-size="22" fill="#0b72a7">Nơi người chơi gặp gỡ và xây dựng</text>
  </g>
</svg>