<svg xmlns="http://www.w3.org/2000/svg" width="1280" height="720" viewBox="0 0 1280 720">
  <defs>
    <linearGradient id="sky" x1="0" y1="0" x2="1" y2="1"><stop offset="0" stop-color="#67d7ff"/><stop offset="1" stop-color="#b8efff"/></linearGradient>
    <linearGradient id="ground" x1="0" y1="0" x2="0" y2="1"><stop offset="0" stop-color="#8be46f"/><stop offset="1" stop-color="#2f9b5c"/></linearGradient>
    <filter id="shadow" x="-20%" y="-20%" width="140%" height="140%"><feDropShadow dx="0" dy="18" stdDeviation="16" flood-color="#0b4a6e" flood-opacity=".22"/></filter>
    <filter id="soft" x="-20%" y="-20%" width="140%" height="140%"><feGaussianBlur stdDeviation="8"/></filter>
  </defs>
  <rect width="1280" height="720" fill="url(#sky)"/>
  <g opacity=".9">
    <ellipse cx="185" cy="110" rx="96" ry="30" fill="#fff" opacity=".92"/>
    <circle cx="145" cy="104" r="42" fill="#fff" opacity=".92"/>
    <circle cx="210" cy="92" r="55" fill="#fff" opacity=".92"/>
    <ellipse cx="1050" cy="145" rx="120" ry="36" fill="#fff" opacity=".82"/>
    <circle cx="1000" cy="133" r="48" fill="#fff" opacity=".82"/>
    <circle cx="1085" cy="120" r="62" fill="#fff" opacity=".82"/>
  </g>
  <circle cx="1120" cy="90" r="48" fill="#ffe994" opacity=".85"/>
  <rect y="480" width="1280" height="240" fill="url(#ground)"/>
  <path d="M0 505 C160 465 260 520 408 490 C590 452 755 514 925 480 C1075 450 1175 500 1280 470 L1280 720 L0 720Z" fill="#57c878" opacity=".9"/>
  
  <g filter="url(#shadow)">
    <rect x="510" y="278" width="260" height="230" rx="16" fill="#d9f3ff" stroke="#ffffff" stroke-width="8"/>
    <rect x="555" y="320" width="64" height="188" fill="#27b6e8"/>
    <rect x="660" y="320" width="64" height="188" fill="#27b6e8"/>
    <rect x="485" y="242" width="310" height="58" rx="10" fill="#1c75bc"/>
    <text x="562" y="280" font-family="Arial" font-size="38" font-weight="900" fill="#fff">SPAWN</text>
    <rect x="600" y="438" width="80" height="70" fill="#91572e"/>
  </g>
  <g opacity=".9">
    <rect x="200" y="430" width="90" height="90" fill="#8b5a2b" stroke="#55351b" stroke-width="5"/>
    <rect x="292" y="430" width="90" height="90" fill="#8b5a2b" stroke="#55351b" stroke-width="5"/>
    <rect x="940" y="430" width="90" height="90" fill="#8b5a2b" stroke="#55351b" stroke-width="5"/>
  </g>
  <g filter="url(#shadow)">
    <rect x="64" y="48" rx="34" width="420" height="126" fill="rgba(255,255,255,.78)" stroke="rgba(255,255,255,.95)"/>
    <text x="98" y="105" font-family="Arial, sans-serif" font-weight="900" font-size="42" fill="#0f3f66">Khu Spawn NovaMC</text>
    <text x="100" y="145" font-family="Arial, sans-serif" font-weight="700" font-size="22" fill="#0b72a7">Điểm bắt đầu của mọi hành trình</text>
  </g>
</svg>